<?xml version="1.0" encoding="UTF-8"?>
<!DOCTYPE svg PUBLIC "-//W3C//DTD SVG 1.1//EN" "http://www.w3.org/Graphics/SVG/1.1/DTD/svg11.dtd">
<svg xmlns="http://www.w3.org/2000/svg" version="1.1" width="500px" height="500px" style="shape-rendering:geometricPrecision; text-rendering:geometricPrecision; image-rendering:optimizeQuality; fill-rule:evenodd; clip-rule:evenodd" xmlns:xlink="http://www.w3.org/1999/xlink">
<g><path style="opacity:0.568" fill="#0e0e0e" d="M 230.5,9.5 C 319.75,6.21532 391.25,39.882 445,110.5C 490.126,177.269 500.793,249.269 477,326.5C 447.755,405.412 392.922,457.245 312.5,482C 220.583,503.461 141.083,481.295 74,415.5C 13.0483,346.677 -5.28501,267.677 19,178.5C 46.9296,96.9036 102.096,43.4036 184.5,18C 199.762,13.9923 215.095,11.1589 230.5,9.5 Z"/></g>
<g><path style="opacity:1" fill="#fdfdfd" d="M 228.5,13.5 C 234.537,13.1707 240.537,13.5041 246.5,14.5C 207.161,79.04 149.828,116.873 74.5,128C 64.8435,129.482 55.1769,129.649 45.5,128.5C 88.1006,61.2938 149.101,22.9604 228.5,13.5 Z"/></g>
<g><path style="opacity:1" fill="#fdfdfd" d="M 252.5,14.5 C 338.545,17.188 404.879,54.688 451.5,127C 365.165,124.183 298.831,86.6831 252.5,14.5 Z"/></g>
<g><path style="opacity:1" fill="#aaef84" d="M 249.5,16.5 C 281.278,73.3945 288.444,133.394 271,196.5C 266.282,214.263 259.116,230.93 249.5,246.5C 224.179,201.391 214.679,153.058 221,101.5C 224.824,71.1928 234.324,42.8595 249.5,16.5 Z"/></g>
<g><path style="opacity:1" fill="#fcfcfc" d="M 263.5,38.5 C 263.56,37.9569 263.893,37.6236 264.5,37.5C 305.684,89.6035 359.35,120.27 425.5,129.5C 360.652,139.24 307.985,169.574 267.5,220.5C 266.998,221.521 266.332,221.688 265.5,221C 286.777,167.634 288.944,113.468 272,58.5C 269.824,51.4462 266.99,44.7795 263.5,38.5 Z"/></g>
<g><path style="opacity:1" fill="#fcfcfc" d="M 232.5,40.5 C 233.239,40.369 233.906,40.5357 234.5,41C 216.153,83.9498 211.32,128.45 220,174.5C 223.136,191.726 227.803,208.393 234,224.5C 193.515,172.928 140.682,141.928 75.5,131.5C 134.121,122.944 183.288,96.9443 223,53.5C 226.796,49.5506 229.963,45.2173 232.5,40.5 Z"/></g>
<g><path style="opacity:1" fill="#9dd2e2" d="M 436.5,131.5 C 442.206,131.171 447.872,131.505 453.5,132.5C 410.713,202.017 348.379,240.85 266.5,249C 261.833,249.667 257.167,249.667 252.5,249C 294.396,179.859 355.729,140.692 436.5,131.5 Z"/></g>
<g><path style="opacity:1" fill="#cdcdcd" d="M 46.5,134.5 C 109.134,134.88 163.134,156.714 208.5,200C 222.884,214.876 235.55,231.043 246.5,248.5C 159.486,245.674 92.8194,207.674 46.5,134.5 Z"/></g>
<g><path style="opacity:1" fill="#fdfdfd" d="M 41.5,134.5 C 43.4331,135.642 44.9331,137.308 46,139.5C 78.878,204.999 82.2113,271.999 56,340.5C 52.1939,349.446 47.8606,358.112 43,366.5C 12.2141,310.215 4.54745,250.881 20,188.5C 25.2352,169.701 32.4019,151.701 41.5,134.5 Z"/></g>
<g><path style="opacity:1" fill="#fdfdfd" d="M 455.5,135.5 C 484.486,187.564 492.653,242.898 480,301.5C 474.993,324.172 466.66,345.506 455,365.5C 420.191,299.358 416.191,231.358 443,161.5C 446.908,152.685 451.074,144.018 455.5,135.5 Z"/></g>
<g><path style="opacity:1" fill="#fcfcfc" d="M 439.5,158.5 C 440.097,158.735 440.43,159.235 440.5,160C 420.084,210.705 416.917,262.539 431,315.5C 433.84,325.016 436.84,334.349 440,343.5C 399.286,291.71 346.12,260.876 280.5,251C 339.955,242.194 389.788,215.694 430,171.5C 433.665,167.492 436.832,163.159 439.5,158.5 Z"/></g>
<g><path style="opacity:1" fill="#fcfcfc" d="M 58.5,158.5 C 99.1958,209.868 152.196,240.702 217.5,251C 152.227,261.025 99.3934,291.858 59,343.5C 72.9958,306.513 78.6625,268.18 76,228.5C 73.6091,204.27 67.7757,180.936 58.5,158.5 Z"/></g>
<g><path style="opacity:1" fill="#9ed2e2" d="M 232.5,252.5 C 236.884,252.174 241.217,252.508 245.5,253.5C 211.848,309.624 163.182,345.79 99.5,362C 82.0438,366.224 64.3771,368.058 46.5,367.5C 89.714,299.206 151.714,260.873 232.5,252.5 Z"/></g>
<g><path style="opacity:1" fill="#cdcdcd" d="M 252.5,253.5 C 339.32,256.241 405.987,294.241 452.5,367.5C 365.592,364.511 298.925,326.511 252.5,253.5 Z"/></g>
<g><path style="opacity:1" fill="#aaef84" d="M 248.5,255.5 C 249.496,255.414 250.329,255.748 251,256.5C 283.775,319.462 288.441,384.462 265,451.5C 261.029,462.251 256.196,472.585 250.5,482.5C 233.898,454.122 224.065,423.455 221,390.5C 216.541,342.629 225.707,297.629 248.5,255.5 Z"/></g>
<g><path style="opacity:1" fill="#fcfcfc" d="M 264.5,277.5 C 305.448,329.16 358.781,359.993 424.5,370C 358.88,379.876 305.714,410.71 265,462.5C 273.789,438.669 279.455,414.003 282,388.5C 285.012,350.066 279.178,313.066 264.5,277.5 Z"/></g>
<g><path style="opacity:1" fill="#fcfcfc" d="M 233.5,277.5 C 234.043,277.56 234.376,277.893 234.5,278.5C 213.854,329.139 211.02,380.806 226,433.5C 228.84,443.016 231.84,452.349 235,461.5C 194.002,409.732 140.502,379.232 74.5,370C 140.123,360.21 193.123,329.377 233.5,277.5 Z"/></g>
<g><path style="opacity:0.7" fill="#8f8f8f" d="M 441.5,372.5 C 444.687,371.194 448.02,371.194 451.5,372.5C 451.376,373.107 451.043,373.44 450.5,373.5C 447.713,372.523 444.713,372.19 441.5,372.5 Z"/></g>
<g><path style="opacity:1" fill="#fdfdfd" d="M 46.5,371.5 C 119.783,373.73 180.283,402.396 228,457.5C 235.239,466.31 241.739,475.643 247.5,485.5C 173.429,484.712 112.596,456.046 65,399.5C 58.0674,390.624 51.9008,381.291 46.5,371.5 Z"/></g>
<g><path style="opacity:1" fill="#fdfdfd" d="M 441.5,372.5 C 444.713,372.19 447.713,372.523 450.5,373.5C 404.47,445.369 338.47,482.869 252.5,486C 296.439,417.008 359.439,379.174 441.5,372.5 Z"/></g>
</svg>
