<svg class="svg-icon" style="width: 1.001953125em; height: 1em;vertical-align: middle;fill: currentColor;overflow: hidden;" viewBox="0 0 1026 1024" version="1.1" xmlns="http://www.w3.org/2000/svg"><path d="M512.034307 0C229.72222 0 0.002375 229.655981 0.002375 512S229.72222 1024 512.034307 1024 1024.066239 794.344019 1024.066239 512 794.346394 0 512.034307 0z m0 989.89647C248.530253 989.89647 34.169769 775.504054 34.169769 512S248.530253 34.10353 512.034307 34.10353 989.898845 248.495946 989.898845 512 775.538361 989.89647 512.034307 989.89647z" fill="#828282" /><path d="M623.796812 224.610702h-85.194961C430.096425 223.525009 416.237875 290.678309 416.237875 363.355869V416.203567h-47.898217a14.209804 14.209804 0 0 0-15.966072 15.966073v95.796432a14.209804 14.209804 0 0 0 15.966072 15.966072H416.237875v239.491082a14.337533 14.337533 0 0 0 16.061868 15.966072h97.552701c9.419983 1.085693 17.051765-6.54609 14.050143-15.966072L543.966451 543.932144h79.830361a14.209804 14.209804 0 0 0 15.966072-15.966072v-95.796432a14.209804 14.209804 0 0 0-15.966072-15.966073h-79.926157L543.966451 368.305351c3.097418-20.40464 3.097418-17.083697 22.03318-15.966072h57.126606c4.438568-0.989896 9.164525-0.44705 12.485468-3.672197 3.320943-3.225147 5.236872-7.631782 4.119247-12.293875v-95.796433A14.177872 14.177872 0 0 0 623.796812 224.610702z m-17.083697 94.008233l-40.042909-1.532743c-49.59062 0-53.741799 26.918798-53.741799 54.476238l-0.127728 60.543345a17.051765 17.051765 0 0 0 17.051765 17.083697H607.83074v61.692903h-77.914432a17.083697 17.083697 0 0 0-17.083697 17.051765L512.800679 767.457154H448.170019v-239.491082c0-9.419983-6.418361-17.051765-15.870276-17.051765H384.30573v-61.692902h47.994013a17.051765 17.051765 0 0 0 12.070351-4.981415c3.193214-3.225147 3.767993-7.567918 3.767993-12.102283v-68.81377c0-71.591867 14.465261-105.695397 90.431832-105.695398h68.111263v60.990396z" fill="#828282" /></svg>